<?xml version="1.0" encoding="iso-8859-1"?>
<!-- Generator: Adobe Illustrator 16.0.0, SVG Export Plug-In . SVG Version: 6.00 Build 0)  -->
<!DOCTYPE svg PUBLIC "-//W3C//DTD SVG 1.1//EN" "http://www.w3.org/Graphics/SVG/1.1/DTD/svg11.dtd">
<svg version="1.1" id="Capa_1" xmlns="http://www.w3.org/2000/svg" xmlns:xlink="http://www.w3.org/1999/xlink" x="0px" y="0px"
	 width="612px" height="612px" viewBox="0 0 612 612" style="enable-background:new 0 0 612 612;" xml:space="preserve">
<g>
	<g id="Shape_365">
		<g>
			<path d="M525.3,377.4c-8.445,0-15.3,6.863-15.3,15.32c0,8.436,6.854,15.299,15.3,15.299c8.446,0,15.3-6.863,15.3-15.299
				C540.6,384.264,533.756,377.4,525.3,377.4z M525.3,224.42c-8.445,0-15.3,6.834-15.3,15.28c0,8.445,6.854,15.3,15.3,15.3
				c8.446,0,15.3-6.854,15.3-15.3C540.6,231.254,533.756,224.42,525.3,224.42z M341.7,377.4h-61.2c-8.446,0-15.3,6.863-15.3,15.32
				c0,8.436,6.854,15.299,15.3,15.299h61.2c8.445,0,15.3-6.863,15.3-15.299C357,384.264,350.146,377.4,341.7,377.4z M474.3,224.42
				c-8.445,0-15.3,6.834-15.3,15.28c0,8.445,6.854,15.3,15.3,15.3s15.3-6.854,15.3-15.3C489.6,231.254,482.756,224.42,474.3,224.42z
				 M474.3,377.4c-8.445,0-15.3,6.863-15.3,15.32c0,8.436,6.854,15.299,15.3,15.299s15.3-6.863,15.3-15.299
				C489.6,384.264,482.756,377.4,474.3,377.4z M198.9,377.4H86.7c-8.446,0-15.3,6.863-15.3,15.32c0,8.436,6.854,15.299,15.3,15.299
				h112.2c8.446,0,15.3-6.863,15.3-15.299C214.2,384.264,207.346,377.4,198.9,377.4z M341.7,224.42h-61.2
				c-8.446,0-15.3,6.834-15.3,15.28c0,8.445,6.854,15.3,15.3,15.3h61.2c8.445,0,15.3-6.854,15.3-15.3
				C357,231.254,350.146,224.42,341.7,224.42z M474.3,71.41c-8.445,0-15.3,6.854-15.3,15.3c0,8.446,6.854,15.3,15.3,15.3
				s15.3-6.854,15.3-15.3C489.6,78.264,482.756,71.41,474.3,71.41z M525.3,71.41c-8.445,0-15.3,6.854-15.3,15.3
				c0,8.446,6.854,15.3,15.3,15.3c8.446,0,15.3-6.854,15.3-15.3C540.6,78.264,533.756,71.41,525.3,71.41z M591.6,479.42
				c11.261,0,20.4-9.16,20.4-20.41V20.42c0-11.261-9.129-20.41-20.4-20.41H20.4C9.139,0.01,0,9.159,0,20.42v438.59
				c0,11.24,9.139,20.41,20.4,20.41h275.4v112.16H10.2c-5.63,0-10.2,4.59-10.2,10.209c0,5.641,4.57,10.201,10.2,10.201h591.6
				c5.631,0,10.2-4.561,10.2-10.201c0-5.619-4.569-10.209-10.2-10.209H316.2V479.42H591.6z M20.4,30.6c0-5.62,4.57-10.18,10.2-10.18
				h550.8c5.63,0,10.199,4.56,10.199,10.18v122.41H20.4V30.6z M20.4,173.41h571.2V306H20.4V173.41z M30.6,459.01
				c-5.63,0-10.2-4.57-10.2-10.199v-122.4h571.2v122.41c0,5.619-4.569,10.199-10.199,10.199H30.6V459.01z M198.9,71.41H86.7
				c-8.446,0-15.3,6.854-15.3,15.3c0,8.446,6.854,15.3,15.3,15.3h112.2c8.446,0,15.3-6.854,15.3-15.3
				C214.2,78.264,207.346,71.41,198.9,71.41z M341.7,71.41h-61.2c-8.446,0-15.3,6.854-15.3,15.3c0,8.446,6.854,15.3,15.3,15.3h61.2
				c8.445,0,15.3-6.854,15.3-15.3C357,78.264,350.146,71.41,341.7,71.41z M198.9,224.42H86.7c-8.446,0-15.3,6.834-15.3,15.28
				c0,8.445,6.854,15.31,15.3,15.31h112.2c8.446,0,15.3-6.854,15.3-15.3C214.2,231.264,207.346,224.42,198.9,224.42z"/>
		</g>
	</g>
</g>
<g>
</g>
<g>
</g>
<g>
</g>
<g>
</g>
<g>
</g>
<g>
</g>
<g>
</g>
<g>
</g>
<g>
</g>
<g>
</g>
<g>
</g>
<g>
</g>
<g>
</g>
<g>
</g>
<g>
</g>
</svg>
