<?xml version="1.0" encoding="utf-8"?>
<!-- Generator: Adobe Illustrator 16.0.0, SVG Export Plug-In . SVG Version: 6.00 Build 0)  -->
<!DOCTYPE svg PUBLIC "-//W3C//DTD SVG 1.1//EN" "http://www.w3.org/Graphics/SVG/1.1/DTD/svg11.dtd">
<svg version="1.1" id="DATABASE" xmlns="http://www.w3.org/2000/svg" xmlns:xlink="http://www.w3.org/1999/xlink" x="0px" y="0px"
	 width="1800px" height="1800px" viewBox="0 0 1800 1800" enable-background="new 0 0 1800 1800" xml:space="preserve">
<path fill="#333333" d="M1801.93,296.528c0-190.31-461.223-292.996-895.183-292.996c-433.958,0-895.176,102.686-895.176,292.996
	v0.005l0,0v1210.046c0,190.315,461.218,293.004,895.176,293.004c433.96,0,895.183-102.688,895.183-293.004V296.533l0,0V296.528z
	 M1738.992,1202.3c0,53.213-86.213,111.09-230.624,154.815c-160.26,48.529-373.921,75.252-601.621,75.252
	c-227.701,0-441.355-26.723-601.614-75.252C160.723,1313.39,74.508,1255.513,74.508,1202.3v-190.62
	c140.622,117.191,494.659,179.347,832.239,179.347c337.587,0,691.62-62.155,832.245-179.347V1202.3z M1738.992,898.022
	c0,53.214-86.213,111.088-230.624,154.816c-160.26,48.528-373.921,75.251-601.621,75.251c-227.701,0-441.355-26.723-601.614-75.251
	C160.723,1009.11,74.508,951.236,74.508,898.022V707.396C215.13,824.587,569.167,886.743,906.747,886.743
	c337.587,0,691.62-62.156,832.245-179.347V898.022z M1738.992,593.739c0,53.214-86.213,111.089-230.624,154.815
	c-160.26,48.529-373.921,75.252-601.621,75.252c-227.701,0-441.355-26.723-601.614-75.252
	C160.723,704.828,74.508,646.953,74.508,593.739V410.186C215.13,527.377,569.167,589.533,906.747,589.533
	c337.587,0,691.62-62.156,832.245-179.348V593.739z M305.133,141.718C465.392,93.193,679.046,66.47,906.747,66.47
	c227.7,0,441.361,26.723,601.621,75.248c144.411,43.731,230.624,101.602,230.624,154.811c0,53.213-86.213,111.085-230.624,154.815
	c-160.26,48.529-373.921,75.251-601.621,75.251c-227.701,0-441.355-26.723-601.614-75.251
	c-144.41-43.73-230.625-101.603-230.625-154.815C74.508,243.32,160.723,185.449,305.133,141.718z M1508.368,1661.394
	c-160.26,48.529-373.921,75.253-601.621,75.253c-227.701,0-441.355-26.724-601.614-75.253
	c-144.41-43.725-230.625-101.601-230.625-154.814v-190.622c140.622,117.192,494.659,179.348,832.239,179.348
	c337.587,0,691.62-62.155,832.245-179.348v190.622C1738.992,1559.793,1652.779,1617.669,1508.368,1661.394z"/>
<g>
</g>
<g>
</g>
<g>
</g>
<g>
</g>
<g>
</g>
<g>
</g>
</svg>
